<svg width="157" height="25" viewBox="0 0 157 25" fill="none" xmlns="http://www.w3.org/2000/svg">
<g clip-path="url(#clip0_2324_7839)">
<path d="M0.945089 10.9867C0.945089 8.94447 0.931615 6.90224 0.952146 4.86001C0.959845 4.12859 1.07533 3.40305 1.41023 2.73622C2.06914 1.42411 3.12518 0.649628 4.54885 0.387988C4.81703 0.3384 5.09419 0.321436 5.36751 0.320783C7.67078 0.316216 9.97406 0.294032 12.2767 0.328613C13.7305 0.350145 14.9072 0.996089 15.7399 2.21033C16.1409 2.79429 16.3693 3.46568 16.4175 4.18209C16.4495 4.66492 16.4521 5.15036 16.4585 5.63449C16.4604 5.77086 16.5143 5.82044 16.6407 5.82044C16.9968 5.82044 17.3529 5.81196 17.7083 5.82762C18.2915 5.85307 18.8664 5.93332 19.4066 6.17539C20.7064 6.75739 21.5386 7.74131 21.8497 9.14869C21.9357 9.53887 21.9793 9.94666 21.9812 10.3466C21.9934 12.6675 22.0095 14.9883 21.9787 17.3091C21.9594 18.7667 21.3871 19.9882 20.1829 20.8311C19.7723 21.1189 19.2879 21.3068 18.8227 21.5058C17.1309 22.2294 15.4339 22.9399 13.7369 23.6511C12.9657 23.9741 12.1914 24.2892 11.417 24.6037C11.1071 24.7296 10.7792 24.6853 10.4597 24.6716C10.2711 24.6631 10.1274 24.5228 10.0555 24.3538C9.97406 24.1613 9.89386 23.9526 9.88424 23.7477C9.85344 23.0939 9.84959 22.4388 9.85023 21.7837C9.85023 21.6278 9.80596 21.5887 9.66033 21.5893C8.21998 21.5932 6.78027 21.6004 5.33992 21.588C4.73747 21.5828 4.13375 21.5449 3.57108 21.282C2.63822 20.8468 1.93184 20.165 1.4359 19.26C1.18504 18.8013 1.06057 18.3028 1.00411 17.7815C0.890554 16.7356 0.959203 15.6877 0.947655 14.6405C0.934823 13.4224 0.945089 12.2049 0.945089 10.9867ZM2.69596 10.9534C2.69596 12.9904 2.69532 15.0281 2.69725 17.0651C2.69725 17.2282 2.70495 17.3933 2.73125 17.5531C2.85508 18.3178 3.22848 18.9285 3.85979 19.3703C4.36087 19.7206 4.92802 19.8498 5.52726 19.8505C7.25375 19.8531 8.97961 19.8505 10.7061 19.8518C11.2527 19.8524 11.5466 20.1128 11.5633 20.6328C11.5831 21.2494 11.5876 21.866 11.5947 22.4825C11.5966 22.6659 11.5998 22.6763 11.7743 22.6104C12.2639 22.4264 12.7521 22.2392 13.2397 22.05C14.5671 21.5352 15.892 21.0132 17.2226 20.5062C17.9374 20.2341 18.636 19.9386 19.2218 19.4264C19.8512 18.8757 20.2342 18.1971 20.2355 17.3365C20.2394 15.092 20.2374 12.8469 20.2355 10.6024C20.2355 10.3414 20.2233 10.0798 20.2028 9.81877C20.1284 8.85312 19.422 7.98729 18.4962 7.73087C17.8777 7.55927 17.2374 7.58211 16.6054 7.53252C16.4867 7.52339 16.4816 7.59907 16.4816 7.69172C16.4848 8.17781 16.4912 8.6639 16.4823 9.14999C16.4681 9.94079 16.4861 10.7355 16.4117 11.5204C16.2885 12.8169 15.7489 13.9293 14.7763 14.801C13.5534 15.8972 12.1195 16.2932 10.5181 16.0401C9.72641 15.9148 8.99885 15.6075 8.36369 15.0914C6.73022 13.7636 6.05271 12.0346 6.40173 9.96362C6.80272 7.58146 8.95844 5.82697 11.3451 5.82501C12.4243 5.82371 13.5028 5.8211 14.5819 5.82501C14.7237 5.82566 14.7718 5.78521 14.7647 5.63906C14.7461 5.27955 14.7603 4.91743 14.7275 4.55987C14.6582 3.80497 14.3881 3.14467 13.785 2.65532C13.259 2.2286 12.6385 2.06875 11.9893 2.06744C9.69754 2.06288 7.40517 2.07658 5.11344 2.09746C4.5713 2.10268 4.07729 2.30755 3.65384 2.64814C3.00328 3.17207 2.70559 3.88587 2.69981 4.70994C2.68762 6.79132 2.6966 8.87204 2.69596 10.9534ZM12.9587 7.5658C12.9587 7.57624 12.9587 7.58668 12.9587 7.59712C12.3665 7.59712 11.7724 7.5658 11.1828 7.60364C10.1024 7.6728 9.24458 8.17586 8.62353 9.07757C7.86197 10.1829 7.83054 11.7031 8.60428 12.7993C9.40947 13.9398 10.5136 14.4787 11.9161 14.2784C12.6334 14.176 13.2513 13.8439 13.7562 13.3297C14.3753 12.6994 14.7262 11.9347 14.7237 11.0298C14.7205 9.96036 14.7108 8.89161 14.7025 7.82222C14.7006 7.57298 14.691 7.56645 14.4465 7.56645C13.9506 7.56515 13.4546 7.5658 12.9587 7.5658Z" fill="black"/>
<path d="M61.2646 8.25292C61.3262 8.1942 61.373 8.16092 61.4057 8.11655C61.9626 7.35969 62.6587 6.79922 63.5659 6.53432C64.1305 6.36924 64.7022 6.31966 65.2899 6.37577C66.1836 6.46124 66.9695 6.78878 67.6496 7.376C68.0217 7.69702 68.3284 8.07545 68.5574 8.51587C68.5773 8.55436 68.6004 8.5909 68.6242 8.62679C68.6293 8.63461 68.6421 8.63723 68.6678 8.65158C68.7942 8.48194 68.9193 8.30708 69.0515 8.13809C69.6295 7.40014 70.3507 6.86642 71.2431 6.58651C71.834 6.40121 72.4416 6.32161 73.0601 6.34902C74.469 6.41296 75.6225 6.98713 76.4502 8.1544C76.8698 8.74553 77.0956 9.42997 77.2412 10.1431C77.3933 10.8902 77.4279 11.6458 77.4299 12.4033C77.4344 14.6804 77.4318 16.9582 77.4311 19.2353C77.4311 19.463 77.4312 19.4623 77.2092 19.4617C76.2487 19.4617 75.2889 19.4617 74.3285 19.4617C74.0616 19.4617 74.0616 19.4623 74.0616 19.1844C74.0616 16.874 74.0616 14.5643 74.0616 12.2539C74.0616 11.6575 73.9525 11.0846 73.7081 10.5385C73.3731 9.79014 72.7675 9.45281 71.9918 9.40322C70.7536 9.32493 69.8104 10.1842 69.5365 11.2823C69.4736 11.5329 69.4409 11.7978 69.4403 12.0562C69.4332 14.4207 69.4358 16.7853 69.4358 19.1505C69.4358 19.1994 69.4274 19.2496 69.4338 19.2979C69.4531 19.4343 69.3889 19.4636 69.267 19.463C68.2527 19.4597 67.239 19.4597 66.2247 19.4643C66.1034 19.4649 66.0643 19.4219 66.0655 19.3025C66.07 18.8601 66.0675 18.4177 66.0675 17.9754C66.0675 16.0806 66.0739 14.1852 66.0636 12.2904C66.0604 11.6549 65.9776 11.0246 65.6684 10.455C65.3072 9.78948 64.7375 9.44041 63.9913 9.40192C62.7428 9.33732 61.6887 10.2416 61.477 11.5629C61.4539 11.7077 61.4442 11.8559 61.4442 12.0027C61.4417 14.4109 61.4423 16.8192 61.4417 19.2281C61.4417 19.4937 61.441 19.4937 61.187 19.4937C60.2214 19.4937 59.2558 19.4943 58.2902 19.4937C58.0708 19.4937 58.0708 19.493 58.0708 19.2796C58.0708 15.1834 58.0714 11.0879 58.0714 6.9917C58.0714 6.72941 58.0714 6.73463 58.33 6.73593C59.1987 6.73919 60.0668 6.73919 60.9355 6.73919C61.1459 6.73919 61.1664 6.75355 61.1799 6.98256C61.1959 7.2442 61.2004 7.50584 61.2158 7.76748C61.2267 7.9182 61.2466 8.06827 61.2646 8.25292Z" fill="black"/>
<path d="M50.0094 19.8585C49.201 19.8474 48.1212 19.6093 47.1248 19.0266C45.9238 18.3239 45.0339 17.3289 44.4558 16.0618C44.0786 15.2351 43.8964 14.353 43.8521 13.4363C43.7931 12.209 44.0292 11.0515 44.5688 9.95731C45.1718 8.73523 46.0733 7.78915 47.257 7.14125C48.0339 6.71584 48.8795 6.46138 49.7624 6.38112C50.9352 6.27477 52.0926 6.36677 53.1756 6.87243C53.642 7.09036 54.0885 7.36831 54.5068 7.67105C55.9029 8.68108 56.6395 10.1048 56.9436 11.7836C57.077 12.5189 57.0796 13.2595 56.9846 13.9994C56.8082 15.3715 56.327 16.6138 55.4205 17.6662C54.6884 18.5157 53.7851 19.1088 52.7342 19.4781C51.9598 19.7509 51.1591 19.8579 50.0094 19.8585ZM53.6709 13.1968C53.6272 12.8523 53.6086 12.5013 53.5348 12.1633C53.2962 11.0685 52.7374 10.1948 51.714 9.70284C50.6208 9.17695 49.5724 9.31006 48.6197 10.0565C47.8132 10.6887 47.411 11.5611 47.2974 12.5717C47.1723 13.6842 47.402 14.7132 48.0955 15.6031C49.2241 17.0516 51.2701 17.2689 52.62 15.8276C53.3 15.1007 53.6548 14.2179 53.6709 13.1968Z" fill="black"/>
<path d="M129.842 18.1008C129.779 18.1693 129.709 18.2326 129.655 18.3083C129.203 18.936 128.588 19.3313 127.879 19.5917C127.178 19.8488 126.446 19.8912 125.712 19.8494C124.507 19.7809 123.461 19.3366 122.636 18.4212C122.086 17.8104 121.742 17.0993 121.676 16.2687C121.543 14.5977 122.245 13.3671 123.653 12.5372C124.603 11.9774 125.646 11.7673 126.739 11.7738C127.616 11.7797 128.473 11.9206 129.322 12.1385C129.775 12.2547 129.696 12.2592 129.73 11.8253C129.776 11.2309 129.651 10.6613 129.34 10.1478C128.98 9.5541 128.436 9.23178 127.767 9.14305C126.746 9.00733 125.976 9.46928 125.354 10.2438C125.276 10.341 125.206 10.4454 125.141 10.5524C125.086 10.6437 125.013 10.6561 124.92 10.6365C124.046 10.4545 123.173 10.2699 122.297 10.097C122.144 10.0669 122.114 10.016 122.157 9.86729C122.55 8.49123 123.477 7.59539 124.7 6.97163C125.375 6.62713 126.098 6.42682 126.853 6.38245C127.307 6.3557 127.766 6.37658 128.221 6.40594C128.546 6.42682 128.873 6.47771 129.191 6.55144C129.848 6.70347 130.423 7.03622 130.966 7.42836C132.169 8.29614 132.765 9.51104 132.914 10.9713C132.955 11.3823 132.973 11.7979 132.973 12.2123C132.979 14.5501 132.976 16.8872 132.976 19.225C132.976 19.4638 132.976 19.4625 132.748 19.4625C131.896 19.4625 131.044 19.4631 130.192 19.4625C129.971 19.4625 129.97 19.4507 129.963 19.2328C129.953 18.8642 129.93 18.4955 129.912 18.1269C129.889 18.1184 129.866 18.1099 129.842 18.1008ZM127.256 14.017C127.253 14.0248 127.251 14.0326 127.248 14.0405C127.098 14.0561 126.949 14.0679 126.8 14.0875C126.334 14.1481 125.896 14.2923 125.518 14.5827C125.099 14.9037 124.905 15.3311 124.972 15.8661C125.052 16.4957 125.461 16.8526 126.004 17.0516C126.962 17.404 127.874 17.2611 128.7 16.6628C129.281 16.2419 129.592 15.6403 129.697 14.9304C129.748 14.5833 129.681 14.4894 129.344 14.4117C129.051 14.3445 128.755 14.2878 128.459 14.2323C128.059 14.1573 127.657 14.0881 127.256 14.017Z" fill="black"/>
<path d="M95.1021 8.24488C95.1618 8.18615 95.2304 8.13461 95.2804 8.06806C95.6846 7.52781 96.1812 7.09979 96.7824 6.80162C97.2463 6.57129 97.7377 6.43819 98.251 6.38208C98.9612 6.30443 99.665 6.34228 100.339 6.58173C101.443 6.97387 102.281 7.6831 102.792 8.76946C103.133 9.49305 103.324 10.2538 103.391 11.0479C103.427 11.4602 103.452 11.8746 103.453 12.2882C103.459 14.6038 103.455 16.9195 103.455 19.2351C103.455 19.4634 103.455 19.4628 103.234 19.4628C102.253 19.4628 101.27 19.4589 100.289 19.4667C100.121 19.468 100.081 19.4151 100.082 19.252C100.087 16.9416 100.087 14.6319 100.084 12.3215C100.083 11.8002 100.015 11.288 99.8273 10.7986C99.4745 9.8767 98.8573 9.47021 97.9565 9.40627C96.4834 9.30188 95.4447 10.4091 95.2715 11.7375C95.2618 11.8126 95.267 11.8902 95.267 11.9666C95.2663 14.3859 95.2663 16.8053 95.2663 19.2246C95.2663 19.4621 95.2663 19.4621 95.0373 19.4621C94.0666 19.4621 93.0952 19.4595 92.1245 19.4667C91.966 19.468 91.9263 19.4164 91.9263 19.2612C91.9301 15.1597 91.9295 11.0583 91.9295 6.9569C91.9295 6.73963 91.9301 6.74028 92.1438 6.74028C93.0227 6.74028 93.9023 6.74028 94.7813 6.74028C94.9731 6.74028 95.002 6.76769 95.0084 6.96669C95.02 7.33729 95.0309 7.70789 95.0431 8.0785C95.0444 8.12547 95.0527 8.1718 95.0578 8.21813C95.0732 8.22595 95.0873 8.23574 95.1021 8.24488Z" fill="black"/>
<path d="M147.741 8.22056C147.815 8.1638 147.854 8.13966 147.885 8.10834C148.061 7.93152 148.237 7.7534 148.409 7.57331C149.093 6.86212 149.944 6.50261 150.901 6.38125C151.62 6.28991 152.334 6.31927 153.02 6.57308C154.271 7.03633 155.163 7.87149 155.641 9.15555C155.99 10.0932 156.067 11.0568 156.062 12.0447C156.051 14.4477 156.06 16.8501 156.061 19.2532C156.061 19.4548 156.058 19.4606 155.851 19.4606C154.885 19.462 153.92 19.4593 152.954 19.4652C152.804 19.4659 152.748 19.428 152.748 19.2649C152.753 16.993 152.746 14.7211 152.757 12.4492C152.759 11.9312 152.729 11.4222 152.55 10.9361C152.229 10.0651 151.615 9.53594 150.701 9.40153C149.875 9.28017 149.208 9.6175 148.647 10.2067C148.155 10.7241 147.935 11.3537 147.934 12.0643C147.931 14.4562 147.933 16.8482 147.932 19.2401C147.932 19.4933 147.931 19.4933 147.682 19.4933C146.732 19.4933 145.783 19.4939 144.834 19.4933C144.596 19.4933 144.596 19.4926 144.596 19.2603C144.596 15.1537 144.596 11.0464 144.593 6.93977C144.593 6.78448 144.633 6.73359 144.793 6.73489C145.683 6.74272 146.573 6.74272 147.463 6.73489C147.623 6.73359 147.677 6.77339 147.68 6.94303C147.685 7.35213 147.716 7.75927 147.741 8.22056Z" fill="black"/>
<path d="M87.0438 10.5667C87.0438 9.35438 87.0464 8.14145 87.0406 6.92916C87.04 6.77583 87.0849 6.73537 87.2331 6.73603C88.2365 6.7419 89.24 6.74125 90.2434 6.73668C90.3672 6.73603 90.4147 6.76996 90.4147 6.90175C90.4115 9.16256 90.4243 11.424 90.407 13.6848C90.4 14.5683 90.3165 15.4484 89.9964 16.2875C89.3426 18.0009 88.166 19.1329 86.4074 19.6288C85.6138 19.8526 84.7989 19.9113 83.9886 19.8441C82.1332 19.6901 80.6845 18.8243 79.7221 17.1866C79.3282 16.5165 79.1139 15.7766 79.0222 15.0087C78.9554 14.4469 78.9266 13.878 78.9233 13.3123C78.9118 11.2315 78.9182 9.15081 78.9189 7.07009C78.9189 6.7145 78.872 6.73537 79.2461 6.73733C80.1956 6.74255 81.1451 6.7432 82.094 6.73538C82.2557 6.73407 82.2936 6.78692 82.2923 6.94025C82.2859 7.79759 82.2929 8.65494 82.2878 9.51228C82.2839 10.0793 82.2576 10.6469 82.2589 11.2139C82.2615 12.1691 82.2602 13.125 82.2949 14.0796C82.3212 14.7914 82.4719 15.483 82.9538 16.0389C83.4709 16.6359 84.1407 16.8604 84.9144 16.7762C85.4816 16.7142 85.9807 16.497 86.3567 16.0539C86.7307 15.6122 86.9662 15.0902 87.0009 14.5115C87.0451 13.7775 87.0349 13.0395 87.0413 12.3029C87.0477 11.7242 87.0438 11.1454 87.0438 10.5667Z" fill="black"/>
<path d="M121.427 15.6553C121.36 15.8621 121.306 16.0363 121.249 16.2092C120.75 17.7191 119.694 18.6919 118.295 19.3235C117.458 19.7013 116.576 19.8559 115.657 19.8611C114.556 19.8676 113.518 19.6425 112.551 19.1095C111.9 18.7506 111.34 18.2743 110.862 17.7028C110.016 16.6908 109.546 15.5118 109.378 14.2055C109.329 13.8284 109.283 13.4467 109.284 13.0676C109.289 11.2015 109.951 9.60104 111.224 8.25696C111.659 7.79762 112.132 7.37743 112.696 7.09361C113.78 6.54879 114.924 6.26627 116.146 6.34783C117.689 6.45092 118.995 7.07338 120.074 8.18127C120.658 8.78089 121.018 9.51622 121.236 10.3246C121.287 10.5125 121.268 10.5432 121.08 10.5817C120.384 10.7239 119.688 10.8642 118.992 11.0052C118.802 11.0437 118.612 11.0789 118.422 11.1167C118.152 11.1709 118.109 11.1533 117.973 10.8988C117.727 10.4388 117.402 10.0545 116.96 9.77525C116.085 9.22131 114.851 9.29765 114.047 9.95338C113.433 10.4545 113.113 11.1357 112.875 11.8723C112.501 13.0363 112.674 14.1501 113.199 15.2168C113.704 16.2438 114.535 16.8141 115.68 16.7939C116.623 16.7775 117.416 16.4024 117.948 15.5672C118.024 15.4485 118.113 15.3382 118.2 15.2279C118.357 15.0296 118.569 15.1014 118.757 15.1359C119.639 15.2997 120.519 15.4772 121.427 15.6553Z" fill="black"/>
<path d="M43.661 15.6857C43.5455 16.0002 43.4557 16.3094 43.3229 16.5985C42.5466 18.2825 41.2069 19.2527 39.4541 19.6794C38.7324 19.8556 37.992 19.9052 37.2554 19.8471C35.9479 19.7434 34.7809 19.2769 33.7787 18.3954C33.0184 17.7272 32.4365 16.9338 32.0375 16.0054C31.7917 15.4338 31.6551 14.8277 31.5941 14.2065C31.5601 13.8594 31.5043 13.5116 31.5088 13.1652C31.5133 12.758 31.5537 12.3489 31.6115 11.9457C31.7648 10.8731 32.1735 9.89892 32.7984 9.02461C33.5875 7.92063 34.6134 7.13049 35.8966 6.68485C36.7043 6.40429 37.5294 6.30251 38.3769 6.35014C39.5561 6.41539 40.6096 6.82775 41.563 7.52719C42.0487 7.88344 42.4676 8.30037 42.7987 8.80668C43.0932 9.25689 43.2792 9.75537 43.448 10.2636C43.5384 10.5357 43.5449 10.537 43.2703 10.5912C42.4368 10.7569 41.6034 10.9213 40.7694 11.0831C40.4377 11.1477 40.3716 11.1177 40.1881 10.8176C39.9488 10.4268 39.6466 10.0999 39.2706 9.84085C38.2826 9.16098 36.9635 9.27842 36.1025 10.1136C35.468 10.7289 35.1453 11.5033 34.981 12.3522C34.7661 13.4614 34.9977 14.5014 35.554 15.4645C36.0114 16.2566 36.7062 16.7022 37.6173 16.7701C38.7311 16.8529 39.6184 16.4543 40.2228 15.4782C40.26 15.4182 40.3004 15.3601 40.3389 15.3007C40.4518 15.1245 40.6103 15.0645 40.813 15.1037C41.2987 15.1976 41.7856 15.2857 42.2713 15.3803C42.6883 15.4619 43.1047 15.548 43.5211 15.6335C43.5545 15.6406 43.5885 15.6589 43.661 15.6857Z" fill="black"/>
<path d="M139.739 13.0885C139.739 11.0404 139.741 8.99292 139.735 6.94482C139.734 6.77649 139.782 6.73408 139.945 6.73538C140.927 6.74321 141.908 6.74321 142.89 6.73669C143.044 6.73538 143.078 6.78562 143.078 6.93308C143.074 11.0397 143.075 15.1464 143.075 19.2537C143.075 19.4631 143.074 19.4631 142.867 19.4624C141.897 19.4624 140.925 19.4618 139.955 19.4624C139.738 19.4624 139.738 19.4644 139.738 19.2484C139.739 17.1958 139.739 15.1418 139.739 13.0885Z" fill="black"/>
<path d="M104.943 13.101C104.943 11.0587 104.943 9.0165 104.943 6.97362C104.943 6.7296 104.943 6.73482 105.187 6.73547C106.152 6.73873 107.118 6.74199 108.083 6.73547C108.242 6.73416 108.282 6.78375 108.282 6.93969C108.278 10.9915 108.279 15.0434 108.279 19.0952C108.279 19.4619 108.279 19.4612 107.922 19.4612C106.995 19.4612 106.067 19.458 105.139 19.4658C104.979 19.4671 104.938 19.4162 104.938 19.2603C104.944 17.2076 104.942 15.1543 104.943 13.101Z" fill="black"/>
<path d="M138.42 17.4716C138.447 18.7302 137.468 19.643 136.27 19.5875C135.266 19.5412 134.255 18.7139 134.269 17.4298C134.281 16.2632 135.246 15.2956 136.424 15.3269C137.536 15.3563 138.485 16.3539 138.42 17.4716Z" fill="black"/>
<path d="M141.384 5.17448C140.327 5.18818 139.507 4.30996 139.509 3.23925C139.51 2.14702 140.322 1.32687 141.416 1.32034C142.485 1.31447 143.321 2.16594 143.313 3.25361C143.306 4.27994 142.561 5.22211 141.384 5.17448Z" fill="black"/>
<path d="M106.63 1.31445C107.591 1.31576 108.473 2.03413 108.5 3.21053C108.527 4.34843 107.716 5.10138 106.841 5.16989C105.442 5.27951 104.725 4.20881 104.702 3.31884C104.675 2.25727 105.428 1.31967 106.63 1.31445Z" fill="black"/>
</g>
<defs>
<clipPath id="clip0_2324_7839">
<rect width="157" height="25" fill="white"/>
</clipPath>
</defs>
</svg>
